<svg width="26" height="16" viewBox="0 0 26 16" fill="none" xmlns="http://www.w3.org/2000/svg">
    <path fill-rule="evenodd" clip-rule="evenodd"
          d="M20.3077 15.3846H5.53846V12.8C5.53846 12.2769 5.67308 11.7962 5.94231 11.3577C6.21154 10.9192 6.56923 10.5846 7.01538 10.3538C7.96923 9.87693 8.93846 9.51923 9.92308 9.28077C10.9077 9.04231 11.9077 8.92308 12.9231 8.92308C13.5628 8.92308 14.1964 8.9704 14.8239 9.06505C14.7879 9.32025 14.7692 9.58103 14.7692 9.84616C14.7692 10.2242 14.8071 10.5934 14.8793 10.9501C14.2317 10.8295 13.5796 10.7692 12.9231 10.7692C12.0615 10.7692 11.2077 10.8731 10.3615 11.0808C9.51538 11.2885 8.67692 11.6 7.84615 12.0154C7.70769 12.0923 7.59615 12.2 7.51154 12.3385C7.42692 12.4769 7.38462 12.6308 7.38462 12.8V13.5385H16.1795C17.1936 14.6715 18.6674 15.3846 20.3077 15.3846ZM15.9136 6.47422C16.3815 5.84661 16.6154 5.12443 16.6154 4.30769C16.6154 3.29231 16.2538 2.42308 15.5308 1.7C14.8077 0.976925 13.9385 0.615387 12.9231 0.615387C11.9077 0.615387 11.0385 0.976925 10.3154 1.7C9.59231 2.42308 9.23077 3.29231 9.23077 4.30769C9.23077 5.32308 9.59231 6.19231 10.3154 6.91539C11.0385 7.63846 11.9077 8 12.9231 8C13.9385 8 14.8077 7.63846 15.5308 6.91539C15.6559 6.79028 15.7702 6.66081 15.8736 6.52696C15.8868 6.50929 15.9002 6.49172 15.9136 6.47422ZM3.69231 12.6154V15.3846H0V12.6154C0 12.1692 0.146154 11.7577 0.438462 11.3808C0.73077 11.0038 1.15385 10.6615 1.70769 10.3538C2.30769 10.0308 2.95385 9.7577 3.64615 9.53462C4.33846 9.31154 5.07692 9.15385 5.86154 9.06154C5.16923 9.5077 4.63462 10.0423 4.25769 10.6654C3.88077 11.2885 3.69231 11.9385 3.69231 12.6154ZM4.77692 6.91539C4.05385 6.19231 3.69231 5.32308 3.69231 4.30769C3.69231 3.29231 4.05385 2.42308 4.77692 1.7C5.5 0.976925 6.36923 0.615387 7.38462 0.615387C7.6 0.615387 7.81538 0.626925 8.03077 0.650002C8.24615 0.673079 8.46154 0.723079 8.67692 0.800002C8.26154 1.29231 7.94231 1.83846 7.71923 2.43846C7.49615 3.03846 7.38462 3.66154 7.38462 4.30769C7.38462 4.95385 7.49615 5.57693 7.71923 6.17693C7.94231 6.77693 8.26154 7.32308 8.67692 7.81539C8.50769 7.86154 8.29231 7.90385 8.03077 7.94231C7.76923 7.98077 7.55385 8 7.38462 8C6.36923 8 5.5 7.63846 4.77692 6.91539ZM11.6192 5.61154C11.9808 5.97308 12.4154 6.15385 12.9231 6.15385C13.4308 6.15385 13.8654 5.97308 14.2269 5.61154C14.5885 5.25 14.7692 4.81539 14.7692 4.30769C14.7692 3.8 14.5885 3.36539 14.2269 3.00385C13.8654 2.64231 13.4308 2.46154 12.9231 2.46154C12.4154 2.46154 11.9808 2.64231 11.6192 3.00385C11.2577 3.36539 11.0769 3.8 11.0769 4.30769C11.0769 4.81539 11.2577 5.25 11.6192 5.61154Z"
          fill="currentColor"/>
    <g clip-path="url(#clip0_23331_50189)">
        <path d="M19.8542 14.1667L19.6875 12.8333C19.5972 12.7986 19.5122 12.757 19.4323 12.7083C19.3524 12.6597 19.2743 12.6076 19.1979 12.5521L17.9583 13.0729L16.8125 11.0938L17.8854 10.2813C17.8785 10.2326 17.875 10.1858 17.875 10.1406V9.85939C17.875 9.81425 17.8785 9.76737 17.8854 9.71876L16.8125 8.90626L17.9583 6.92709L19.1979 7.44793C19.2743 7.39237 19.3542 7.34029 19.4375 7.29168C19.5208 7.24307 19.6042 7.2014 19.6875 7.16668L19.8542 5.83334H22.1458L22.3125 7.16668C22.4028 7.2014 22.4878 7.24307 22.5677 7.29168C22.6476 7.34029 22.7257 7.39237 22.8021 7.44793L24.0417 6.92709L25.1875 8.90626L24.1146 9.71876C24.1215 9.76737 24.125 9.81425 24.125 9.85939V10.1406C24.125 10.1858 24.1181 10.2326 24.1042 10.2813L25.1771 11.0938L24.0313 13.0729L22.8021 12.5521C22.7257 12.6076 22.6458 12.6597 22.5625 12.7083C22.4792 12.757 22.3958 12.7986 22.3125 12.8333L22.1458 14.1667H19.8542ZM21.0208 11.4583C21.4236 11.4583 21.7674 11.316 22.0521 11.0313C22.3368 10.7465 22.4792 10.4028 22.4792 10C22.4792 9.59723 22.3368 9.25348 22.0521 8.96876C21.7674 8.68404 21.4236 8.54168 21.0208 8.54168C20.6111 8.54168 20.2656 8.68404 19.9844 8.96876C19.7031 9.25348 19.5625 9.59723 19.5625 10C19.5625 10.4028 19.7031 10.7465 19.9844 11.0313C20.2656 11.316 20.6111 11.4583 21.0208 11.4583ZM21.0208 10.625C20.8472 10.625 20.6997 10.5642 20.5781 10.4427C20.4566 10.3212 20.3958 10.1736 20.3958 10C20.3958 9.8264 20.4566 9.67883 20.5781 9.5573C20.6997 9.43577 20.8472 9.37501 21.0208 9.37501C21.1944 9.37501 21.342 9.43577 21.4635 9.5573C21.5851 9.67883 21.6458 9.8264 21.6458 10C21.6458 10.1736 21.5851 10.3212 21.4635 10.4427C21.342 10.5642 21.1944 10.625 21.0208 10.625ZM20.5833 13.3333H21.4063L21.5521 12.2292C21.7674 12.1736 21.967 12.092 22.151 11.9844C22.3351 11.8767 22.5035 11.7465 22.6563 11.5938L23.6875 12.0208L24.0938 11.3125L23.1979 10.6354C23.2326 10.5382 23.2569 10.4358 23.2708 10.3281C23.2847 10.2205 23.2917 10.1111 23.2917 10C23.2917 9.8889 23.2847 9.77952 23.2708 9.67189C23.2569 9.56425 23.2326 9.46182 23.1979 9.36459L24.0938 8.68751L23.6875 7.97918L22.6563 8.41668C22.5035 8.25695 22.3351 8.12327 22.151 8.01564C21.967 7.908 21.7674 7.8264 21.5521 7.77084L21.4167 6.66668H20.5938L20.4479 7.77084C20.2326 7.8264 20.033 7.908 19.849 8.01564C19.6649 8.12327 19.4965 8.25348 19.3438 8.40626L18.3125 7.97918L17.9063 8.68751L18.8021 9.35418C18.7674 9.45834 18.7431 9.56251 18.7292 9.66668C18.7153 9.77084 18.7083 9.88195 18.7083 10C18.7083 10.1111 18.7153 10.2188 18.7292 10.3229C18.7431 10.4271 18.7674 10.5313 18.8021 10.6354L17.9063 11.3125L18.3125 12.0208L19.3438 11.5833C19.4965 11.7431 19.6649 11.8767 19.849 11.9844C20.033 12.092 20.2326 12.1736 20.4479 12.2292L20.5833 13.3333Z"
              fill="currentColor"/>
    </g>
    <defs>
        <clipPath id="clip0_23331_50189">
            <rect width="10" height="10" fill="white" transform="translate(16 5)"/>
        </clipPath>
    </defs>
</svg>
