<svg width="20" height="22" viewBox="0 0 20 22" fill="white" xmlns="http://www.w3.org/2000/svg">
<path fill-rule="evenodd" clip-rule="evenodd" d="M0 5V0H5V2H2V5H0ZM18 5V2H15V0H20V5H18ZM0 22V17H2V20H5V22H0ZM15 22V20H18V17H20V22H15ZM13 12.3333H7V11H13V12.3333ZM13 15H7V13.6667H13V15ZM3.51406 18.53C3.85677 18.8433 4.26875 19 4.75 19H15.25C15.7312 19 16.1432 18.8433 16.4859 18.53C16.8286 18.2167 17 17.84 17 17.4V7.8L11.75 3H4.75C4.26875 3 3.85677 3.15667 3.51406 3.47C3.17135 3.78333 3 4.16 3 4.6V17.4C3 17.84 3.17135 18.2167 3.51406 18.53ZM10.875 4.6L12.9167 6.42857L15.25 8.6V17.4H4.75V4.6H10.875Z" fill="param(fill) #E8EAED"/>
</svg>