<svg width="304" height="77" viewBox="0 0 304 77" fill="none" xmlns="http://www.w3.org/2000/svg">
<g clip-path="url(#clip0_11757_9907)">
<path d="M214.19 22.3973H223.843V75.3469H214.19V22.3973ZM214.19 0H224.035V9.62725H214.19V0Z" fill="#050A23"/>
<path d="M163.666 16.332C163.666 11.1333 164.985 7.15399 167.623 4.39419C170.261 1.5702 174.058 0.158203 179.014 0.158203H204.304V75.3469H194.651V8.43764H179.786C177.727 8.43764 176.118 9.14366 174.96 10.5556C173.865 11.9676 173.319 14.0215 173.319 16.717V75.3469H163.666V16.332ZM163.666 22.3971H186.431V30.6766H163.666V22.3971Z" fill="#050A23"/>
<path d="M132.122 76.8868C126.91 76.8868 122.309 75.7315 118.318 73.4209C114.393 71.1104 111.336 67.8692 109.148 63.6974C107.024 59.4614 105.963 54.5194 105.963 48.8714C105.963 43.2235 107.057 38.2815 109.245 34.0455C111.433 29.8095 114.49 26.5683 118.415 24.322C122.341 22.0115 126.845 20.8562 131.929 20.8562C136.756 20.8562 141.067 21.8831 144.864 23.9369C148.725 25.9265 151.75 28.8468 153.938 32.6977C156.126 36.4844 157.22 41.0092 157.22 46.2721V51.9522H116.195C116.388 55.1613 117.128 58.0494 118.415 60.6166C119.766 63.1839 121.6 65.2057 123.917 66.6819C126.299 68.0938 129.034 68.7999 132.122 68.7999C135.598 68.7999 138.589 67.9334 141.1 66.2005C143.61 64.4675 145.379 62.0929 146.409 59.0763H156.641C155.933 62.5421 154.421 65.6228 152.104 68.3184C149.852 71.0141 146.988 73.1321 143.513 74.6725C140.038 76.1483 136.241 76.8868 132.122 76.8868ZM147.277 44.1541C147.277 41.1375 146.666 38.5061 145.444 36.2597C144.221 33.9492 142.483 32.1521 140.231 30.8685C137.978 29.5849 135.307 28.9431 132.219 28.9431C129.13 28.9431 126.427 29.617 124.11 30.9648C121.858 32.2484 120.089 34.0455 118.801 36.356C117.514 38.6024 116.677 41.2017 116.292 44.1541H147.277Z" fill="#050A23"/>
<path d="M90.406 22.3973H100.059V75.3469H90.406V22.3973ZM90.406 0H100.251V9.62725H90.406V0Z" fill="#050A23"/>
<path d="M59.1062 22.3967H68.566V31.3501H68.7591C70.1749 28.3336 71.8481 26.0872 73.7786 24.611C75.7736 23.1348 78.6692 22.3967 82.4662 22.3967H85.3243V30.6762H81.0184C76.7711 30.6762 73.6499 31.8956 71.6549 34.3346C69.7243 36.7734 68.7591 40.4318 68.7591 45.3096V75.3462H59.1062V22.3967Z" fill="#050A23"/>
<path d="M29.0499 76.8876C24.6739 76.8876 20.7484 75.796 17.2734 73.6141C13.8626 71.3677 11.3529 68.3832 9.74405 64.6608H9.55101C9.61535 66.0085 9.64753 67.934 9.64753 70.437V75.3469H0.0911102V0.158203H9.74405V27.4033C9.74405 29.9064 9.6797 31.7997 9.55101 33.0834H9.74405C11.3529 29.3608 13.8626 26.4085 17.2734 24.2263C20.7484 21.98 24.6739 20.8568 29.0499 20.8568C33.2972 20.8568 37.2871 21.9479 41.0195 24.13C44.8164 26.3122 47.841 29.5212 50.0933 33.7573C52.3456 37.9932 53.4718 43.0315 53.4718 48.872C53.4718 54.7125 52.3456 59.7508 50.0933 63.9868C47.841 68.2228 44.8164 71.4318 41.0195 73.6141C37.2871 75.796 33.2972 76.8876 29.0499 76.8876ZM26.4436 68.8004C29.7899 68.8004 32.718 67.9661 35.2278 66.2973C37.8019 64.6287 39.7969 62.286 41.2126 59.2695C42.6284 56.2529 43.3362 52.7871 43.3362 48.872C43.3362 44.9569 42.6284 41.4912 41.2126 38.4746C39.7969 35.4581 37.8019 33.1154 35.2278 31.4467C32.718 29.778 29.7899 28.9437 26.4436 28.9437C23.1616 28.9437 20.2336 29.778 17.6594 31.4467C15.0853 33.1154 13.0904 35.4581 11.6746 38.4746C10.3232 41.4912 9.64753 44.9569 9.64753 48.872C9.64753 52.7871 10.3232 56.2529 11.6746 59.2695C13.0904 62.286 15.0853 64.6287 17.6594 66.2973C20.2336 67.9661 23.1616 68.8004 26.4436 68.8004Z" fill="#050A23"/>
<path d="M301.752 9.67854H298.235C297.664 9.67854 297.116 9.90351 296.712 10.3057L285.328 21.6112V7.02233C285.328 5.83282 284.363 4.86938 283.17 4.86938H279.669C279.099 4.86938 278.552 5.09434 278.148 5.49538L266.823 16.7236V2.15294C266.823 0.963423 265.858 0 264.665 0H261.183C260.612 0 260.063 0.226086 259.659 0.629407L242.628 17.5928C242.222 17.9961 241.994 18.5437 241.994 19.1151L241.951 73.6986C241.951 74.8837 242.909 75.8461 244.095 75.8536L247.63 75.8753C248.208 75.8791 248.762 75.6516 249.17 75.2452L260.218 64.2223V73.9133C260.218 75.097 261.177 76.0594 262.363 76.0662L265.904 76.0879C266.482 76.0916 267.035 75.8641 267.444 75.457L278.724 64.2018V73.9679C278.724 75.1516 279.682 76.1141 280.869 76.1208L284.409 76.141C284.985 76.1448 285.54 75.9172 285.948 75.5108L303.266 58.2315C303.67 57.8282 303.898 57.2806 303.898 56.7092L303.909 11.8315C303.909 10.642 302.944 9.67741 301.752 9.67741V9.67854ZM248.554 66.5423V20.9386L260.219 9.29909V54.9038L248.554 66.5423ZM266.823 66.7581V26.042L278.724 14.1673V54.8834L266.823 66.7581ZM285.328 30.9308L297.306 18.9788V54.8584L285.328 66.8103V30.9308Z" fill="#DC3C59"/>
</g>
<defs>
<clipPath id="clip0_11757_9907">
<rect width="303.818" height="76.8875" fill="white" transform="translate(0.0911102)"/>
</clipPath>
</defs>
</svg>
