<svg width="407" height="103" viewBox="0 0 407 103" fill="none" xmlns="http://www.w3.org/2000/svg">
<g clip-path="url(#clip0_1214_1169)">
<path d="M286.811 30.0038H299.742V100.936H286.811V30.0038ZM286.811 0H300V12.8968H286.811V0Z" fill="#F5F5F6"/>
<path d="M219.128 21.8785C219.128 14.9142 220.895 9.58351 224.428 5.88643C227.963 2.10335 233.05 0.211823 239.688 0.211823H273.567V100.936H260.636V11.3031H240.722C237.964 11.3031 235.809 12.2489 234.257 14.1404C232.791 16.0319 232.059 18.7833 232.059 22.3943V100.936H219.128V21.8785ZM219.128 30.0035H249.624V41.0948H219.128V30.0035Z" fill="#F5F5F6"/>
<path d="M176.872 102.999C169.889 102.999 163.725 101.451 158.379 98.356C153.121 95.2608 149.026 90.9189 146.095 85.3303C143.25 79.6557 141.828 73.0353 141.828 65.4691C141.828 57.9031 143.293 51.2827 146.225 45.608C149.155 39.9335 153.251 35.5915 158.509 32.5822C163.768 29.487 169.802 27.9394 176.613 27.9394C183.079 27.9394 188.854 29.3151 193.941 32.0664C199.113 34.7317 203.165 38.6438 206.097 43.8025C209.027 48.8753 210.493 54.9367 210.493 61.9871V69.5962H155.535C155.793 73.8951 156.785 77.7642 158.509 81.2033C160.319 84.6425 162.776 87.3508 165.88 89.3283C169.07 91.2198 172.734 92.1656 176.872 92.1656C181.527 92.1656 185.535 91.0049 188.897 88.6835C192.26 86.362 194.63 83.1808 196.01 79.1398H209.717C208.768 83.7826 206.743 87.9096 203.639 91.5207C200.622 95.1319 196.786 97.9692 192.13 100.033C187.476 102.01 182.389 102.999 176.872 102.999ZM197.173 59.1498C197.173 55.1087 196.355 51.5836 194.717 48.5743C193.079 45.4791 190.751 43.0716 187.733 41.3521C184.716 39.6326 181.138 38.7727 177 38.7727C172.863 38.7727 169.242 39.6755 166.139 41.4811C163.122 43.2006 160.751 45.608 159.026 48.7032C157.302 51.7126 156.181 55.1946 155.665 59.1498H197.173Z" fill="#F5F5F6"/>
<path d="M120.987 30.0038H133.919V100.936H120.987V30.0038ZM120.987 0H134.177V12.8968H120.987V0Z" fill="#F5F5F6"/>
<path d="M79.0577 30.0029H91.7303V41.997H91.9889C93.8855 37.956 96.127 34.9467 98.7132 32.9692C101.386 30.9917 105.265 30.0029 110.351 30.0029H114.18V41.0942H108.412C102.722 41.0942 98.5407 42.7278 95.8682 45.995C93.282 49.2622 91.9889 54.163 91.9889 60.6974V100.935H79.0577V30.0029Z" fill="#F5F5F6"/>
<path d="M38.7938 103C32.9316 103 27.6729 101.538 23.0177 98.6147C18.4486 95.6054 15.0865 91.6073 12.9313 86.6206H12.6727C12.7589 88.4262 12.802 91.0055 12.802 94.3587V100.936H0V0.211823H12.9313V36.7098C12.9313 40.063 12.8451 42.5994 12.6727 44.319H12.9313C15.0865 39.3322 18.4486 35.3772 23.0177 32.4539C27.6729 29.4447 32.9316 27.9401 38.7938 27.9401C44.4835 27.9401 49.8284 29.4017 54.8285 32.3249C59.9148 35.2482 63.9666 39.5471 66.9838 45.2218C70.0011 50.8964 71.5098 57.6457 71.5098 65.4698C71.5098 73.2938 70.0011 80.0432 66.9838 85.7178C63.9666 91.3924 59.9148 95.6913 54.8285 98.6147C49.8284 101.538 44.4835 103 38.7938 103ZM35.3023 92.1663C39.7851 92.1663 43.7076 91.0485 47.0697 88.813C50.5181 86.5776 53.1906 83.4394 55.0871 79.3984C56.9837 75.3574 57.932 70.7145 57.932 65.4698C57.932 60.2251 56.9837 55.5822 55.0871 51.5412C53.1906 47.5003 50.5181 44.362 47.0697 42.1265C43.7076 39.8911 39.7851 38.7734 35.3023 38.7734C30.9057 38.7734 26.9832 39.8911 23.5349 42.1265C20.0865 44.362 17.414 47.5003 15.5175 51.5412C13.7071 55.5822 12.802 60.2251 12.802 65.4698C12.802 70.7145 13.7071 75.3574 15.5175 79.3984C17.414 83.4394 20.0865 86.5776 23.5349 88.813C26.9832 91.0485 30.9057 92.1663 35.3023 92.1663Z" fill="#F5F5F6"/>
<path d="M404.109 12.9656H399.398C398.633 12.9656 397.9 13.2669 397.358 13.8057L382.108 28.9507V9.40724C382.108 7.81375 380.815 6.52312 379.217 6.52312H374.527C373.763 6.52312 373.031 6.82447 372.489 7.36172L357.319 22.4033V2.88411C357.319 1.29062 356.026 0 354.429 0H349.764C348.998 0 348.264 0.30287 347.722 0.843166L324.906 23.5676C324.364 24.1079 324.058 24.8415 324.058 25.607L324 98.7281C324 100.316 325.283 101.605 326.873 101.615L331.608 101.644C332.382 101.649 333.124 101.344 333.671 100.8L348.471 86.0334V99.0157C348.471 100.601 349.755 101.891 351.344 101.9L356.088 101.929C356.862 101.934 357.603 101.629 358.15 101.084L373.262 86.006V99.0887C373.262 100.675 374.546 101.964 376.135 101.973L380.877 102C381.649 102.005 382.392 101.7 382.938 101.156L406.138 78.0081C406.679 77.4678 406.984 76.7342 406.984 75.9687L407 15.8497C407 14.2562 405.706 12.964 404.109 12.964V12.9656ZM332.846 89.1413V28.0497L348.473 12.4572V73.5502L332.846 89.1413ZM357.319 89.4304V34.8864L373.262 18.9788V73.5229L357.319 89.4304ZM382.108 41.4354L398.155 25.4244V73.4894L382.108 89.5004V41.4354Z" fill="#DC3C59"/>
</g>
<defs>
<clipPath id="clip0_1214_1169">
<rect width="407" height="103" fill="white"/>
</clipPath>
</defs>
</svg>
