<?xml version="1.0" encoding="utf-8"?>
<!-- Generator: Adobe Illustrator 26.5.0, SVG Export Plug-In . SVG Version: 6.00 Build 0)  -->
<svg version="1.1" xmlns="http://www.w3.org/2000/svg" xmlns:xlink="http://www.w3.org/1999/xlink" x="0px" y="0px"
	 viewBox="0 0 264 80" style="enable-background:new 0 0 264 80;" xml:space="preserve">
<style type="text/css">
	.st0{fill:#1E2239;}
	.st1{fill:#C82740;}
</style>
<g id="Grid">
</g>
<g id="Design">
	<g>
		<path class="st0" d="M179.4,27.8h7.6v42h-7.6V27.8z M179.4,10h7.8v7.6h-7.8V10z"/>
		<path class="st0" d="M139.5,23c0-4.1,1-7.3,3.1-9.5c2.1-2.2,5.1-3.4,9-3.4h20v59.6H164V16.7h-11.8c-1.6,0-2.9,0.6-3.8,1.7
			c-0.9,1.1-1.3,2.7-1.3,4.9v46.5h-7.6V23z M139.5,27.8h18v6.6h-18V27.8z"/>
		<path class="st0" d="M114.5,71c-4.1,0-7.8-0.9-10.9-2.7c-3.1-1.8-5.5-4.4-7.3-7.7c-1.7-3.4-2.5-7.3-2.5-11.8
			c0-4.5,0.9-8.4,2.6-11.8c1.7-3.4,4.1-5.9,7.3-7.7c3.1-1.8,6.7-2.7,10.7-2.7c3.8,0,7.2,0.8,10.2,2.4c3.1,1.6,5.4,3.9,7.2,6.9
			c1.7,3,2.6,6.6,2.6,10.8v4.5h-32.5c0.2,2.5,0.7,4.8,1.8,6.9c1.1,2,2.5,3.6,4.4,4.8c1.9,1.1,4,1.7,6.5,1.7c2.7,0,5.1-0.7,7.1-2.1
			c2-1.4,3.4-3.3,4.2-5.7h8.1c-0.6,2.7-1.8,5.2-3.6,7.3c-1.8,2.1-4,3.8-6.8,5C120.8,70.4,117.8,71,114.5,71z M126.5,45.1
			c0-2.4-0.5-4.5-1.5-6.3c-1-1.8-2.3-3.3-4.1-4.3c-1.8-1-3.9-1.5-6.3-1.5s-4.6,0.5-6.4,1.6c-1.8,1-3.2,2.4-4.2,4.3
			c-1,1.8-1.7,3.8-2,6.2H126.5z"/>
		<path class="st0" d="M81.5,27.8h7.6v42h-7.6V27.8z M81.5,10h7.8v7.6h-7.8V10z"/>
		<path class="st0" d="M56.8,27.8h7.5v7.1h0.2c1.1-2.4,2.4-4.2,4-5.3c1.6-1.2,3.9-1.8,6.9-1.8h2.3v6.6h-3.4c-3.4,0-5.8,1-7.4,2.9
			c-1.5,1.9-2.3,4.8-2.3,8.7v23.8h-7.6V27.8z"/>
		<path class="st0" d="M33,71c-3.5,0-6.6-0.9-9.3-2.6c-2.7-1.8-4.7-4.1-6-7.1h-0.2c0.1,1.1,0.1,2.6,0.1,4.6v3.9h-7.6V10.2h7.6v21.6
			c0,2-0.1,3.5-0.2,4.5h0.2c1.3-3,3.3-5.3,6-7c2.7-1.8,5.9-2.7,9.3-2.7c3.4,0,6.5,0.9,9.5,2.6c3,1.7,5.4,4.3,7.2,7.6
			c1.8,3.4,2.7,7.4,2.7,12s-0.9,8.6-2.7,12c-1.8,3.4-4.2,5.9-7.2,7.6C39.5,70.2,36.4,71,33,71z M30.9,64.6c2.6,0,5-0.7,6.9-2
			c2-1.3,3.6-3.2,4.7-5.6c1.1-2.4,1.7-5.1,1.7-8.2c0-3.1-0.6-5.9-1.7-8.2c-1.1-2.4-2.7-4.3-4.7-5.6c-2-1.3-4.3-2-6.9-2
			c-2.6,0-4.9,0.7-6.9,2c-2,1.3-3.6,3.2-4.7,5.6c-1.1,2.4-1.6,5.1-1.6,8.2c0,3.1,0.5,5.9,1.6,8.2c1.1,2.4,2.7,4.3,4.7,5.6
			S28.3,64.6,30.9,64.6z"/>
	</g>
	<path class="st1" d="M250.1,17.6h-2.8c-0.4,0-0.9,0.2-1.2,0.5l-8.9,8.9V15.6c0-0.9-0.8-1.7-1.7-1.7h-2.7c-0.4,0-0.9,0.2-1.2,0.5
		l-8.9,8.8V11.7c0-0.9-0.8-1.7-1.7-1.7h-2.7c-0.4,0-0.9,0.2-1.2,0.5l-13.4,13.3c-0.3,0.3-0.5,0.7-0.5,1.2l0,43
		c0,0.9,0.8,1.7,1.7,1.7l2.8,0c0.5,0,0.9-0.2,1.2-0.5l8.7-8.7v7.6c0,0.9,0.8,1.7,1.7,1.7l2.8,0c0.5,0,0.9-0.2,1.2-0.5l8.9-8.9v7.7
		c0,0.9,0.8,1.7,1.7,1.7l2.8,0c0.5,0,0.9-0.2,1.2-0.5l13.6-13.6c0.3-0.3,0.5-0.7,0.5-1.2l0-35.3C251.8,18.4,251.1,17.6,250.1,17.6
		L250.1,17.6z M208.4,62.4V26.5l9.2-9.2v35.9L208.4,62.4z M222.7,62.6v-32l9.3-9.3v32L222.7,62.6z M237.3,34.4l9.4-9.4v28.2
		l-9.4,9.4V34.4z"/>
</g>
</svg>
