<svg width="16" height="20" viewBox="0 0 16 20" fill="none" xmlns="http://www.w3.org/2000/svg">
<path id="Vector" d="M14.781 3.08971H13.9255C13.7867 3.08971 13.6536 3.14445 13.5553 3.24233L10.7862 5.99358V2.44329C10.7862 2.15382 10.5514 1.91937 10.2614 1.91937H9.40976C9.271 1.91937 9.13805 1.97411 9.03974 2.0717L6.28513 4.80417V1.25831C6.28513 0.968831 6.05027 0.734375 5.76029 0.734375H4.91336C4.77433 0.734375 4.64083 0.789395 4.54252 0.887545L0.399802 5.01567C0.301206 5.11383 0.245815 5.24709 0.245815 5.38616L0.235291 18.6694C0.235291 18.9577 0.468211 19.1919 0.7568 19.1938L1.61674 19.1991C1.75717 19.2 1.89177 19.1447 1.9912 19.0456L4.67851 16.3633V18.7217C4.67851 19.0098 4.9117 19.2439 5.20029 19.2456L6.06162 19.2509C6.20204 19.2516 6.33665 19.1963 6.43608 19.0974L9.17987 16.3583V18.7349C9.17987 19.0231 9.41308 19.2573 9.70167 19.2588L10.5627 19.2638C10.7029 19.2647 10.8377 19.2094 10.9369 19.1103L15.1494 14.9053C15.2477 14.8072 15.3031 14.674 15.3031 14.5349L15.3059 3.61364C15.3059 3.32417 15.071 3.08944 14.781 3.08944V3.08971ZM1.84136 16.9278V5.82991L4.67879 2.99737V14.0955L1.84136 16.9278ZM6.28513 16.9804V7.07186L9.17987 4.18209V14.0906L6.28513 16.9804ZM10.7862 8.26156L13.6998 5.35299V14.0845L10.7862 16.993V8.26156Z" fill="#FFFFFF"/>
</svg>
