<svg width="38" height="35" viewBox="0 0 38 35" fill="none" xmlns="http://www.w3.org/2000/svg">
<g id="Excel Short" clip-path="url(#clip0_32691_5095)">
<path id="Vector" d="M23.8858 17.1311L9.46436 14.5811V33.423C9.46436 34.2835 10.1605 34.9811 11.0193 34.9811H35.9039C36.7627 34.9811 37.4589 34.2835 37.4589 33.423V26.4811L23.8858 17.1311Z" fill="#185C37"/>
<path id="Vector_2" d="M23.8858 0.980469H11.0193C10.1605 0.980469 9.46436 1.67803 9.46436 2.53851V9.48047L23.8858 17.9805L31.5207 20.5305L37.4589 17.9805V9.48047L23.8858 0.980469Z" fill="#21A366"/>
<path id="Vector_3" d="M9.46436 9.48047H23.8858V17.9805H9.46436V9.48047Z" fill="#107C41"/>
<path id="Vector_4" opacity="0.1" d="M19.7859 7.78027H9.46436V29.0303H19.7859C20.6435 29.0275 21.338 28.3315 21.3408 27.4722V9.33832C21.338 8.479 20.6435 7.78307 19.7859 7.78027Z" fill="black"/>
<path id="Vector_5" opacity="0.2" d="M18.9375 8.63086H9.46436V29.8809H18.9375C19.7952 29.8781 20.4897 29.1821 20.4925 28.3228V10.1889C20.4897 9.32958 19.7952 8.63365 18.9375 8.63086Z" fill="black"/>
<path id="Vector_6" opacity="0.2" d="M18.9375 8.63086H9.46436V28.1809H18.9375C19.7952 28.1781 20.4897 27.4821 20.4925 26.6228V10.1889C20.4897 9.32958 19.7952 8.63365 18.9375 8.63086Z" fill="black"/>
<path id="Vector_7" opacity="0.2" d="M18.0892 8.63086H9.46436V28.1809H18.0892C18.9468 28.1781 19.6414 27.4821 19.6442 26.6228V10.1889C19.6414 9.32958 18.9468 8.63365 18.0892 8.63086Z" fill="black"/>
<path id="Vector_8" d="M2.53617 8.63086H18.0892C18.948 8.63086 19.6442 9.32842 19.6442 10.1889V25.7728C19.6442 26.6333 18.948 27.3308 18.0892 27.3308H2.53617C1.67738 27.3309 0.981201 26.6333 0.981201 25.7728V10.1889C0.981201 9.32842 1.67738 8.63086 2.53617 8.63086Z" fill="url(#paint0_linear_32691_5095)"/>
<path id="Vector_9" d="M5.79712 23.0445L9.06824 17.9657L6.07113 12.915H8.48205L10.1176 16.145C10.2686 16.4519 10.3721 16.6797 10.4281 16.8301H10.4493C10.5568 16.5853 10.6699 16.3476 10.7886 16.117L12.537 12.9167H14.7503L11.6768 17.9377L14.8283 23.0445H12.4734L10.5842 19.4991C10.4952 19.3483 10.4197 19.1899 10.3585 19.0257H10.3306C10.2752 19.1865 10.2018 19.3405 10.1117 19.4847L8.16649 23.0445H5.79712Z" fill="white"/>
<path id="Vector_10" d="M35.9039 0.980469H23.8857V9.48047H37.4589V2.53851C37.4589 1.67803 36.7627 0.980469 35.9039 0.980469Z" fill="#33C481"/>
<path id="Vector_11" d="M23.8857 17.9805H37.4589V26.4805H23.8857V17.9805Z" fill="#107C41"/>
</g>
<defs>
<linearGradient id="paint0_linear_32691_5095" x1="4.22335" y1="7.41343" x2="16.4383" y2="28.5273" gradientUnits="userSpaceOnUse">
<stop stop-color="#18884F"/>
<stop offset="0.5" stop-color="#117E43"/>
<stop offset="1" stop-color="#0B6631"/>
</linearGradient>
<clipPath id="clip0_32691_5095">
<rect width="36.4777" height="34" fill="white" transform="translate(0.981201 0.980469)"/>
</clipPath>
</defs>
</svg>
