<svg width="111" height="34" viewBox="0 0 111 34" fill="none" xmlns="http://www.w3.org/2000/svg">
<g clip-path="url(#clip0_34299_14723)">
<path d="M23.8859 16.1506L9.46448 13.6006V32.4425C9.46448 33.303 10.1607 34.0006 11.0194 34.0006H35.9041C36.7628 34.0006 37.459 33.303 37.459 32.4425V25.5006L23.8859 16.1506Z" fill="#185C37"/>
<path d="M23.8859 0H11.0194C10.1607 0 9.46448 0.697559 9.46448 1.55805V8.5L23.8859 17L31.5208 19.55L37.459 17V8.5L23.8859 0Z" fill="#21A366"/>
<path d="M9.46448 8.5H23.8859V17H9.46448V8.5Z" fill="#107C41"/>
<path opacity="0.1" d="M19.786 6.7998H9.46448V28.0498H19.786C20.6436 28.047 21.3382 27.3511 21.3409 26.4918V8.35785C21.3382 7.49853 20.6436 6.8026 19.786 6.7998Z" fill="black"/>
<path opacity="0.2" d="M18.9377 7.65039H9.46448V28.9004H18.9377C19.7953 28.8976 20.4898 28.2017 20.4926 27.3423V9.20844C20.4898 8.34911 19.7953 7.65318 18.9377 7.65039Z" fill="black"/>
<path opacity="0.2" d="M18.9377 7.65039H9.46448V27.2004H18.9377C19.7953 27.1976 20.4898 26.5017 20.4926 25.6423V9.20844C20.4898 8.34911 19.7953 7.65318 18.9377 7.65039Z" fill="black"/>
<path opacity="0.2" d="M18.0893 7.65039H9.46448V27.2004H18.0893C18.947 27.1976 19.6415 26.5017 19.6443 25.6423V9.20844C19.6415 8.34911 18.947 7.65318 18.0893 7.65039Z" fill="black"/>
<path d="M2.53623 7.65039H18.0893C18.9481 7.65039 19.6443 8.34795 19.6443 9.20844V24.7923C19.6443 25.6528 18.9481 26.3504 18.0893 26.3504H2.53623C1.67744 26.3504 0.981262 25.6528 0.981262 24.7923V9.20844C0.981262 8.34795 1.67744 7.65039 2.53623 7.65039Z" fill="url(#paint0_linear_34299_14723)"/>
<path d="M5.79718 22.064L9.0683 16.9853L6.07119 11.9346H8.48211L10.1177 15.1646C10.2687 15.4714 10.3722 15.6992 10.4282 15.8497H10.4494C10.5568 15.6049 10.6699 15.3672 10.7887 15.1365L12.5371 11.9363H14.7503L11.6769 16.9572L14.8284 22.064H12.4735L10.5843 18.5187C10.4953 18.3678 10.4197 18.2094 10.3586 18.0452H10.3306C10.2753 18.2061 10.2018 18.36 10.1117 18.5042L8.16655 22.064H5.79718Z" fill="white"/>
<path d="M35.904 0H23.8859V8.5H37.459V1.55805C37.459 0.697559 36.7628 0 35.904 0Z" fill="#33C481"/>
<path d="M23.8859 17H37.459V25.5H23.8859V17Z" fill="#107C41"/>
</g>
<path d="M59.2671 27H44.6662V7.41638H58.8129V9.74076H47.2577V15.7254H58.0648V18.0498H47.2577V24.6756H59.2671V27ZM74.2153 27H71.0894L67.5627 21.4696L64.0361 27H60.9102L66.1467 19.6394L61.3243 12.8266H64.4502L67.5627 17.7826L70.6753 12.8266H73.8012L68.9787 19.6127L74.2153 27ZM82.0033 27.334C79.9906 27.334 78.3787 26.6883 77.1675 25.397C75.9652 24.0967 75.3641 22.2711 75.3641 19.92C75.3641 17.56 75.9652 15.7343 77.1675 14.443C78.3787 13.1516 79.9906 12.506 82.0033 12.506C83.5529 12.506 84.8442 12.8978 85.8773 13.6815C86.9192 14.4652 87.5337 15.5963 87.7208 17.0746H85.1292C85.0936 16.2286 84.773 15.5829 84.1674 15.1376C83.5707 14.6923 82.8493 14.4697 82.0033 14.4697C80.801 14.4697 79.8259 14.9283 79.0778 15.8456C78.3297 16.754 77.9557 18.1121 77.9557 19.92C77.9557 21.7189 78.3297 23.077 79.0778 23.9943C79.8259 24.9027 80.801 25.3569 82.0033 25.3569C82.8493 25.3569 83.5707 25.1343 84.1674 24.689C84.773 24.2437 85.0936 23.6025 85.1292 22.7653H87.7208C87.5337 24.2437 86.9192 25.3747 85.8773 26.1584C84.8442 26.9421 83.5529 27.334 82.0033 27.334ZM95.963 27.334C93.879 27.334 92.2048 26.6838 90.9402 25.3836C89.6756 24.0745 89.0433 22.2533 89.0433 19.92C89.0433 17.6045 89.6533 15.7922 90.8734 14.483C92.1024 13.165 93.7054 12.506 95.6825 12.506C97.704 12.506 99.316 13.1516 100.518 14.443C101.729 15.7343 102.335 17.56 102.335 19.92V20.5211H91.6615C91.7684 22.1598 92.2181 23.3754 93.0107 24.168C93.8123 24.9606 94.7963 25.3569 95.963 25.3569C96.8446 25.3569 97.6373 25.1343 98.3408 24.689C99.0533 24.2348 99.4273 23.5936 99.4629 22.7653H102.068C101.872 24.2259 101.208 25.3524 100.077 26.1451C98.9553 26.9377 97.5838 27.334 95.963 27.334ZM99.6767 18.544C99.4718 17.1815 99.0132 16.1618 98.3007 15.4849C97.5883 14.8081 96.7155 14.4697 95.6825 14.4697C94.6761 14.4697 93.8123 14.8081 93.0909 15.4849C92.3695 16.1529 91.9109 17.1726 91.715 18.544H99.6767ZM107.692 27H105.167V7.41638H107.692V27Z" fill="#929292"/>
<defs>
<linearGradient id="paint0_linear_34299_14723" x1="4.22341" y1="6.43296" x2="16.4383" y2="27.5469" gradientUnits="userSpaceOnUse">
<stop stop-color="#18884F"/>
<stop offset="0.5" stop-color="#117E43"/>
<stop offset="1" stop-color="#0B6631"/>
</linearGradient>
<clipPath id="clip0_34299_14723">
<rect width="36.4777" height="34" fill="white" transform="translate(0.981262)"/>
</clipPath>
</defs>
</svg>
